# xmcd CD database file
#
# Track frame offsets:
#	183
#	16590
#	29705
#	42088
#	52268
#	64513
#	83058
#	107348
#	119170
#	135433
#	149493
#	165760
#	178608
#	194510
#	216028
#	227143
#	273635
#	293303
#	307098
#	318363
#
# Disc length: 4381 seconds
#
# Revision: 3
# Processed by: cddbd v1.5.2PL0 Copyright (c) Steve Scherf et al.
# Submitted via: CDex 1.51
#
DISCID=1b111b14
DTITLE=Nina Simone - Feeling Good The Very Best Of Nina Simone
DYEAR=1994
DGENRE=Blues
TTITLE0=My Baby Just Cares For Me
TTITLE1=Feeling Good
TTITLE2=Don't Let Me Be Misunderstood
TTITLE3=Ain't Got No (I Got Life)
TTITLE4=To Love Somebody
TTITLE5=Love Me Or Leave Me
TTITLE6=Don't Smoke In Bed
TTITLE7=I Put A Spell On You
TTITLE8=Here Comes The Sun
TTITLE9=Work Song
TTITLE10=Ne Me Quitte Pas (If You Go Away)
TTITLE11=I'm Going Back Home
TTITLE12=Strange Fruit
TTITLE13=Mississippi Goddam
TTITLE14=Mood Indigo
TTITLE15=Sinnerman
TTITLE16=Don't Explain
TTITLE17=The Other Woman
TTITLE18=I Loves You Porgy
TTITLE19=I'm Gonna Leave You
EXTD=YEAR: 1994
EXTT0=
EXTT1=
EXTT2=
EXTT3=
EXTT4=
EXTT5=
EXTT6=
EXTT7=
EXTT8=
EXTT9=
EXTT10=
EXTT11=
EXTT12=
EXTT13=
EXTT14=
EXTT15=
EXTT16=
EXTT17=
EXTT18=
EXTT19=
PLAYORDER=
